<svg width="120" height="120" viewBox="0 0 120 120" fill="none" xmlns="http://www.w3.org/2000/svg">
<path d="M85.14 0H34.86C13.02 0 0 13.02 0 34.86V85.14C0 106.98 13.02 120 34.86 120H85.14C106.98 120 120 106.98 120 85.14V34.86C120 13.02 106.98 0 85.14 0ZM47.82 77.4L34.32 90.9C33.42 91.8 32.28 92.22 31.14 92.22C30 92.22 28.8 91.8 27.96 90.9L23.46 86.4C21.66 84.66 21.66 81.78 23.46 80.04C25.2 78.3 28.02 78.3 29.82 80.04L31.14 81.36L41.46 71.04C43.2 69.3 46.02 69.3 47.82 71.04C49.56 72.78 49.56 75.66 47.82 77.4ZM47.82 35.4L34.32 48.9C33.42 49.8 32.28 50.22 31.14 50.22C30 50.22 28.8 49.8 27.96 48.9L23.46 44.4C21.66 42.66 21.66 39.78 23.46 38.04C25.2 36.3 28.02 36.3 29.82 38.04L31.14 39.36L41.46 29.04C43.2 27.3 46.02 27.3 47.82 29.04C49.56 30.78 49.56 33.66 47.82 35.4ZM93.36 87.72H61.86C59.4 87.72 57.36 85.68 57.36 83.22C57.36 80.76 59.4 78.72 61.86 78.72H93.36C94.5535 78.72 95.6981 79.1941 96.542 80.038C97.3859 80.8819 97.86 82.0265 97.86 83.22C97.86 84.4135 97.3859 85.5581 96.542 86.402C95.6981 87.2459 94.5535 87.72 93.36 87.72ZM93.36 45.72H61.86C59.4 45.72 57.36 43.68 57.36 41.22C57.36 38.76 59.4 36.72 61.86 36.72H93.36C94.5535 36.72 95.6981 37.1941 96.542 38.038C97.3859 38.8819 97.86 40.0265 97.86 41.22C97.86 42.4135 97.3859 43.5581 96.542 44.402C95.6981 45.2459 94.5535 45.72 93.36 45.72Z" fill="url(#paint0_linear_11_3)"/>
<defs>
<linearGradient id="paint0_linear_11_3" x1="60" y1="0" x2="60" y2="120" gradientUnits="userSpaceOnUse">
<stop stop-color="#67B26F"/>
<stop offset="1" stop-color="#70CB30"/>
</linearGradient>
</defs>
</svg>
